<!-- Slide 2 — Jeffries Hook Accent (minimal, fully visible, easy to animate)
     Concept: “wasteful” loop + “harmful comparison”
     IDs you can animate later: #loop, #drain, #warn, #barsA, #barsB, #strike
-->
<svg xmlns="http://www.w3.org/2000/svg" viewBox="0 0 640 160" role="img" aria-labelledby="s2title s2desc">
  <title id="s2title">Jeffries Hook — Wasteful and Harmful</title>
  <desc id="s2desc">Left: a small circular loop arrow leading to a drain (waste). Right: two tiny bar groups with a diagonal strike (harmful comparisons). A warning triangle ties the idea.</desc>

  <defs>
    <linearGradient id="accGrad2" x1="0" y1="0" x2="1" y2="0">
      <stop offset="0" stop-color="#7c3aed"/>
      <stop offset="1" stop-color="#22c55e"/>
    </linearGradient>
  </defs>

  <!-- Left: loop arrow (waste) -->
  <g id="loop" transform="translate(80,80)">
    <circle cx="0" cy="0" r="28" fill="none" stroke="url(#accGrad2)" stroke-width="8" stroke-linecap="round"/>
    <path d="M 18,-8 L 34,0 L 18,8 Z" fill="url(#accGrad2)"/>
    <!-- tiny drain -->
    <g id="drain" transform="translate(0,30)">
      <circle cx="0" cy="0" r="8" fill="#0d1117" stroke="#2a3340" stroke-width="2"/>
      <rect x="-6" y="-2" width="12" height="4" rx="2" fill="#2a3340"/>
    </g>
  </g>

  <!-- Center: warning triangle -->
  <g id="warn" transform="translate(320,82)">
    <polygon points="0,-26 22,18 -22,18" fill="url(#accGrad2)"/>
    <rect x="-3.5" y="-8" width="7" height="14" rx="3.5" fill="#0d1117"/>
    <rect x="-3.5" y="10" width="7" height="7" rx="3.5" fill="#0d1117"/>
  </g>

  <!-- Right: two tiny bar groups + strike (harmful comparison) -->
  <g id="compare" transform="translate(520,84)">
    <!-- Team A -->
    <g id="barsA" transform="translate(-26,0)" fill="#9fb0c3">
      <rect x="-16" y="-20" width="10" height="40" rx="3"/>
      <rect x="-4"  y="-30" width="10" height="60" rx="3"/>
      <rect x="8"   y="-14" width="10" height="28" rx="3"/>
    </g>
    <!-- Team B -->
    <g id="barsB" transform="translate(26,0)" fill="#9fb0c3">
      <rect x="-16" y="-24" width="10" height="48" rx="3"/>
      <rect x="-4"  y="-36" width="10" height="72" rx="3"/>
      <rect x="8"   y="-10" width="10" height="20" rx="3"/>
    </g>

    <!-- Strike-through -->
    <line id="strike" x1="-44" y1="28" x2="44" y2="-28" stroke="url(#accGrad2)" stroke-width="8" stroke-linecap="round"/>
  </g>
</svg>