<!-- Slide 3 — 50 ≠ 50 (Complexity Trap, inside one team)
     Minimal accent: two equal bars (same SP) with different value badges; centered “≠”.
     Easy to animate: widths (#barA,#barB), opacity/scale of badges (#hiBadge,#loBadge), and the symbol (#neq).
-->
<svg xmlns="http://www.w3.org/2000/svg" viewBox="0 0 640 180" role="img" aria-labelledby="s3title s3desc">
  <title id="s3title">Equal Story Points, Different Value</title>
  <desc id="s3desc">Two identical horizontal bars representing equal story points; a not-equal symbol and contrasting value badges to show different customer outcomes.</desc>

  <defs>
    <linearGradient id="accGrad3" x1="0" y1="0" x2="1" y2="0">
      <stop offset="0" stop-color="#7c3aed"/>
      <stop offset="1" stop-color="#22c55e"/>
    </linearGradient>
    <style>
      :root { --line:#2a3340; --muted:#9fb0c3; }
    </style>
  </defs>

  <!-- Bars: same length -->
  <g id="bars" transform="translate(40,40)">
    <rect id="barA" x="0" y="10"  rx="10" width="420" height="20" fill="url(#accGrad3)"/>
    <rect id="barB" x="0" y="92"  rx="10" width="420" height="20" fill="url(#accGrad3)"/>
    <!-- rail guides (subtle) -->
    <rect x="-12" y="6"  width="448" height="28" rx="14" fill="none" stroke="var(--line)" opacity=".35"/>
    <rect x="-12" y="88" width="448" height="28" rx="14" fill="none" stroke="var(--line)" opacity=".35"/>
  </g>

  <!-- Center: ≠ -->
  <g id="neq" transform="translate(320,90)">
    <g fill="none" stroke="#ffffff" stroke-linecap="round" stroke-width="8" opacity="0.9">
      <line x1="-28" y1="-10" x2="28" y2="-10"/>
      <line x1="-28" y1="10"  x2="28" y2="10"/>
    </g>
    <line x1="-34" y1="22" x2="34" y2="-22" stroke="url(#accGrad3)" stroke-width="8" stroke-linecap="round"/>
  </g>

  <!-- Value badges -->
  <g id="badges" transform="translate(500,40)">
    <!-- High value -->
    <g id="hiBadge" transform="translate(0,20)">
      <circle cx="0" cy="0" r="18" fill="none" stroke="#22c55e" stroke-width="5"/>
      <path d="M -8,2 L -2,10 L 10,-8" fill="none" stroke="#22c55e" stroke-width="5" stroke-linecap="round" stroke-linejoin="round"/>
    </g>
    <!-- Low value -->
    <g id="loBadge" transform="translate(0,102)">
      <circle cx="0" cy="0" r="18" fill="none" stroke="#f43f5e" stroke-width="5"/>
      <g stroke="#f43f5e" stroke-width="5" stroke-linecap="round">
        <line x1="-8" y1="-8" x2="8" y2="8"/>
        <line x1="-8" y1="8"  x2="8" y2="-8"/>
      </g>
    </g>
  </g>
</svg>