<!-- Slide 7 — Value > Effort
     Minimal accent: a tilted balance favoring a value chip (ring+check) over an effort hexagon.
     Easy to animate later: rotate #beam; nudge #panValue/#panEffort; pulse #check or scale #ring.
-->
<svg xmlns="http://www.w3.org/2000/svg" viewBox="0 0 640 220" role="img" aria-labelledby="s7title s7desc">
  <title id="s7title">Value Greater Than Effort</title>
  <desc id="s7desc">A balance scale tilted toward a value token (ring with check) and away from an effort token (hexagon).</desc>

  <defs>
    <linearGradient id="accGrad7" x1="0" y1="0" x2="1" y2="0">
      <stop offset="0" stop-color="#7c3aed"/>
      <stop offset="1" stop-color="#22c55e"/>
    </linearGradient>
    <style>
      :root { --muted:#9fb0c3; --line:#2a3340; }
    </style>
  </defs>

  <!-- Base -->
  <g id="base" transform="translate(320,168)">
    <rect x="-18" y="0" width="36" height="16" rx="6" fill="var(--line)" opacity=".85"/>
    <rect x="-90" y="16" width="180" height="12" rx="6" fill="var(--line)" opacity=".6"/>
  </g>

  <!-- Beam (tilted toward value on left) -->
  <g id="beam" transform="translate(320,120) rotate(-8)">
    <rect x="-160" y="-6" width="320" height="12" rx="6" fill="url(#accGrad7)"/>
    <circle cx="0" cy="0" r="8" fill="#ffffff"/>
  </g>

  <!-- Left pan: VALUE (ring + check) -->
  <g id="panValue" transform="translate(196,144) rotate(-8)">
    <rect x="-38" y="-6" width="76" height="12" rx="6" fill="var(--line)" opacity=".6"/>
    <g transform="translate(0,-26)">
      <circle id="ring" cx="0" cy="0" r="22" fill="none" stroke="url(#accGrad7)" stroke-width="8"/>
      <path id="check" d="M -10,2 L -2,12 L 14,-8" fill="none" stroke="#22c55e" stroke-width="8" stroke-linecap="round" stroke-linejoin="round"/>
    </g>
  </g>

  <!-- Right pan: EFFORT (hex) -->
  <g id="panEffort" transform="translate(470,132) rotate(-8)">
    <rect x="-38" y="-6" width="76" height="12" rx="6" fill="var(--line)" opacity=".6"/>
    <g transform="translate(0,-24)" fill="var(--muted)">
      <polygon id="effortHex" points="0,-18 16,-9 16,9 0,18 -16,9 -16,-9"/>
    </g>
  </g>
</svg>